<svg version="1.1" width="128px" height="128px" viewBox="0 0 128 128" xmlns="http://www.w3.org/2000/svg">
  <defs>
    <linearGradient x1="235.72002" y1="132.36891" x2="235.72002" y2="227.63136" gradientUnits="userSpaceOnUse" id="color-1">
      <stop offset="0" stop-color="#03befc"></stop>
      <stop offset="1" stop-color="#8e03fc"></stop>
    </linearGradient>
    <linearGradient x1="265.16764" y1="161.23841" x2="265.16764" y2="226.98787" gradientUnits="userSpaceOnUse" id="color-2">
      <stop offset="0" stop-color="#03befc"></stop>
      <stop offset="1" stop-color="#8e03fc"></stop>
    </linearGradient>
    <linearGradient x1="239.99999" y1="92.89772" x2="239.99999" y2="267.10228" gradientUnits="userSpaceOnUse" id="color-3">
      <stop offset="0" stop-color="#03befc"></stop>
      <stop offset="1" stop-color="#8e03fc"></stop>
    </linearGradient>
    <linearGradient gradientUnits="userSpaceOnUse" x1="96" y1="72" x2="96" y2="120" id="gradient-0" gradientTransform="matrix(0.850053, -0.526697, 0.600805, 0.969657, -39.136684, 57.62159)">
      <stop offset="0" style="stop-color: rgb(255, 199, 0);"></stop>
      <stop offset="1" style="stop-color: rgb(255, 0, 0);"></stop>
    </linearGradient>
    <mask id="mask-0">
      <path d="M 299.95 193.61 L 299.95 218.107 L 324.474 218.107 L 324.474 239.883 L 299.95 239.883 L 299.95 264.38 L 278.15 264.38 L 278.15 239.883 L 253.625 239.883 L 253.625 218.107 L 278.15 218.107 L 278.15 193.61 L 299.95 193.61 Z M 147.35 87.454 L 147.35 272.546 L 332.649 272.546 L 332.649 87.454 L 147.35 87.454 Z" style="fill: rgb(255, 255, 255);"></path>
    </mask>
  </defs>
  <g transform="matrix(0.733949, 0, 0, 0.734768, -112.147699, -68.258302)" style="mask: url(#mask-0);">
    <g data-paper-data="{&quot;isPaintingLayer&quot;:true}" fill-rule="nonzero" stroke="none" stroke-width="1" stroke-linecap="butt" stroke-linejoin="miter" stroke-miterlimit="10" stroke-dasharray="" stroke-dashoffset="0" style="mix-blend-mode: normal">
      <path d="M168.37261,130.89985c0.31019,-0.1825 0.63578,-0.19701 1.20469,-0.20577c-0.08153,0.24575 -0.4064,0.4858 -0.94455,0.7178c-0.21328,-0.00799 -0.24471,-0.34398 -0.26015,-0.51203z" fill="#ccfafe"></path>
      <path d="M206.02091,172.72168c-0.2728,-2.95837 0.0455,-6.04225 -0.08241,-8.91143c-0.0984,-2.20646 2.43545,-2.79668 4.55545,-2.82263c6.75227,-0.08279 6.75118,0.15627 7.08152,-6.72835c0.52856,-11.01582 9.05105,-19.51126 21.2034,-21.4153c8.43313,-1.32138 16.5162,0.32859 24.60787,2.31422c1.94122,0.47638 2.36651,1.65096 2.05353,3.43125c-0.55304,3.14586 -1.04234,6.30294 -1.55541,9.45581c-0.35942,2.20876 -1.74908,1.93043 -3.45759,1.69717c-5.25644,-0.71758 -10.53599,-1.63185 -15.81729,-1.70637c-6.07428,-0.08569 -10.13857,4.79233 -9.86698,10.72895c0.08131,1.77766 0.68506,2.59583 2.5356,2.5419c2.61023,-0.07611 5.22715,0.06817 7.83656,-0.0196c1.83423,-0.06171 2.66264,0.6666 2.53073,2.49245c-0.01703,0.23594 0.00235,0.47479 0.0092,0.71222c0.29415,10.11809 0.2941,10.113 -9.73343,10.40408c-0.91689,0.02661 -1.83034,0.17161 -3.16481,0.30286c0,17.4291 0,34.69683 0,52.37676c-5.7447,0 -11.05546,0 -16.6872,0.03685c-0.32093,0.03691 -0.34195,0.05049 -0.38778,-0.26464c-0.04583,-17.56298 -0.04583,-34.81089 -0.04583,-52.50774c-3.79625,0 -6.85056,0 -9.90487,0c0,0 -1.64504,-1.41123 -1.71026,-2.11852z" fill="url(#color-1)"></path>
      <path d="M256.50004,226.54226c-0.1405,-20.95042 -0.15343,-41.60018 -0.2579,-62.24949c-0.01188,-2.35677 0.51542,-3.11843 2.80303,-3.02238c3.55445,0.14916 8.0989,0.24104 11.64212,-0.00361c3.09335,-0.2136 3.43377,0.74841 3.40447,3.94716c-0.16328,17.801 -0.1134,58.09009 -0.1134,61.77393c-6.02681,-0.38532 -11.70235,0.21809 -17.47832,-0.44561z" fill="url(#color-2)"></path>
      <path d="M152.80046,180.71944c0.1324,-21.07636 5.80198,-44.8003 24.99417,-63.06131c20.65534,-19.65319 41.60406,-24.50104 61.92824,-24.76042c21.30163,0.34436 44.89081,5.27643 62.98109,24.53345c19.69563,20.96597 24.76151,42.25906 24.485,63.56474c-0.44566,9.27988 -1.60677,10.47384 -11.63259,10.39291c-7.98122,-0.06439 -8.68654,-0.81954 -9.1017,-10.81831c0.31786,-20.4995 -5.98235,-33.75464 -19.86181,-48.15938c-10.1833,-13.03151 -25.92821,-17.97354 -46.5726,-18.56441c-19.93776,0.28386 -34.57571,4.59575 -47.74,18.57947c-14.66407,14.56989 -18.51782,28.37187 -18.48611,48.01088c0.03187,19.75761 11.20101,39.5858 19.08958,46.85306c8.17911,7.53485 26.44856,18.34271 46.60616,19.02842c10.8112,0.3678 10.51639,7.38756 10.57416,10.20488c0.05317,2.59633 0.0161,10.46152 -10.10829,10.57886c-20.84354,-0.22362 -42.36129,-3.46706 -63.00978,-24.17475c-19.95829,-20.01546 -23.59898,-42.44107 -24.14551,-62.20804z" fill="url(#color-3)"></path>
    </g>
  </g>
  <path d="M 94 76 L 106 76 L 106 94 L 124 94 L 124 106 L 106 106 L 106 124 L 94 124 L 94 106 L 76 106 L 76 94 L 94 94 L 94 76 Z" style="fill: url(#gradient-0); paint-order: stroke; stroke-width: 4px;"></path>
</svg>